<svg xmlns="http://www.w3.org/2000/svg" xmlns:xlink="http://www.w3.org/1999/xlink" width="500" zoomAndPan="magnify" viewBox="0 0 375 225" height="300" preserveAspectRatio="xMidYMid meet" version="1.0"><defs><g/><clipPath id="81bd78b5dd"><path d="M 21.9375 14.96875 L 353.4375 14.96875 L 353.4375 111.71875 L 21.9375 111.71875 Z M 21.9375 14.96875 " clip-rule="nonzero"/></clipPath><clipPath id="cace4c7c34"><path d="M 103 82 L 133 82 L 133 111.71875 L 103 111.71875 Z M 103 82 " clip-rule="nonzero"/></clipPath></defs><g clip-path="url(#81bd78b5dd)"><path fill="#004aad" d="M 126.167969 23.269531 L 181.492188 78.59375 L 339.890625 78.59375 L 353.707031 94.996094 L 339.890625 111.402344 L 324.21875 111.402344 L 319.835938 102.632812 L 309.605469 102.632812 L 305.222656 111.402344 L 295.394531 111.402344 L 291.011719 102.632812 L 280.914062 102.632812 L 276.53125 111.402344 L 266.769531 111.402344 L 262.386719 102.632812 L 252.15625 102.632812 L 247.773438 111.402344 L 181.558594 111.402344 L 118.199219 48.042969 L 54.507812 111.402344 L 21.699219 111.402344 L 55.902344 77.199219 L 55.902344 44.058594 L 78.816406 44.058594 L 78.816406 54.285156 C 91.898438 41.203125 105.050781 28.050781 118.132812 14.96875 Z M 187.734375 84.835938 L 189.925781 87.027344 L 338.828125 87.027344 L 338.828125 84.835938 Z M 187.734375 84.835938 " fill-opacity="1" fill-rule="nonzero"/></g><g clip-path="url(#cace4c7c34)"><path fill="#004aad" d="M 103.988281 82.976562 L 116.007812 82.976562 L 116.007812 95.328125 L 103.988281 95.328125 Z M 119.992188 82.976562 L 132.015625 82.976562 L 132.015625 95.328125 L 119.992188 95.328125 Z M 132.015625 98.980469 L 132.015625 111.335938 L 119.992188 111.335938 L 119.992188 98.980469 Z M 116.007812 111.402344 L 103.988281 111.402344 L 103.988281 99.046875 L 116.007812 99.046875 Z M 116.007812 111.402344 " fill-opacity="1" fill-rule="nonzero"/></g><g fill="#383535" fill-opacity="1"><g transform="translate(29.109061, 165.617785)"><g><path d="M 2.59375 -45.40625 L 13.890625 -45.40625 C 17.472656 -45.40625 20.140625 -44.453125 21.890625 -42.546875 C 23.640625 -40.648438 24.515625 -37.863281 24.515625 -34.1875 L 24.515625 -11.21875 C 24.515625 -7.539062 23.640625 -4.75 21.890625 -2.84375 C 20.140625 -0.945312 17.472656 0 13.890625 0 L 2.59375 0 Z M 9.734375 -38.921875 L 9.734375 -6.484375 L 13.75 -6.484375 C 14.875 -6.484375 15.757812 -6.804688 16.40625 -7.453125 C 17.0625 -8.109375 17.390625 -9.257812 17.390625 -10.90625 L 17.390625 -34.515625 C 17.390625 -36.160156 17.0625 -37.304688 16.40625 -37.953125 C 15.757812 -38.597656 14.875 -38.921875 13.75 -38.921875 Z M 9.734375 -38.921875 "/></g></g></g><g fill="#383535" fill-opacity="1"><g transform="translate(55.57419, 165.617785)"><g><path d="M 17.515625 0 C 17.429688 -0.300781 17.34375 -0.582031 17.25 -0.84375 C 17.164062 -1.101562 17.09375 -1.425781 17.03125 -1.8125 C 16.96875 -2.207031 16.925781 -2.707031 16.90625 -3.3125 C 16.882812 -3.914062 16.875 -4.671875 16.875 -5.578125 L 16.875 -12.71875 C 16.875 -14.832031 16.503906 -16.320312 15.765625 -17.1875 C 15.023438 -18.050781 13.835938 -18.484375 12.203125 -18.484375 L 9.734375 -18.484375 L 9.734375 0 L 2.59375 0 L 2.59375 -45.40625 L 13.359375 -45.40625 C 17.078125 -45.40625 19.769531 -44.539062 21.4375 -42.8125 C 23.101562 -41.082031 23.9375 -38.46875 23.9375 -34.96875 L 23.9375 -31.40625 C 23.9375 -26.726562 22.378906 -23.65625 19.265625 -22.1875 C 21.085938 -21.445312 22.332031 -20.242188 23 -18.578125 C 23.664062 -16.921875 24 -14.898438 24 -12.515625 L 24 -5.515625 C 24 -4.390625 24.039062 -3.40625 24.125 -2.5625 C 24.21875 -1.71875 24.4375 -0.863281 24.78125 0 Z M 9.734375 -38.921875 L 9.734375 -24.984375 L 12.515625 -24.984375 C 13.859375 -24.984375 14.90625 -25.328125 15.65625 -26.015625 C 16.414062 -26.703125 16.796875 -27.957031 16.796875 -29.78125 L 16.796875 -34.25 C 16.796875 -35.894531 16.503906 -37.082031 15.921875 -37.8125 C 15.335938 -38.550781 14.421875 -38.921875 13.171875 -38.921875 Z M 9.734375 -38.921875 "/></g></g></g><g fill="#383535" fill-opacity="1"><g transform="translate(81.650108, 165.617785)"><g><path d="M 9.734375 -26.28125 L 19.53125 -26.28125 L 19.53125 -19.78125 L 9.734375 -19.78125 L 9.734375 -6.484375 L 22.0625 -6.484375 L 22.0625 0 L 2.59375 0 L 2.59375 -45.40625 L 22.0625 -45.40625 L 22.0625 -38.921875 L 9.734375 -38.921875 Z M 9.734375 -26.28125 "/></g></g></g><g fill="#383535" fill-opacity="1"><g transform="translate(105.5206, 165.617785)"><g><path d="M 25.6875 0 L 18.484375 0 L 17.25 -8.234375 L 8.5 -8.234375 L 7.265625 0 L 0.71875 0 L 7.984375 -45.40625 L 18.421875 -45.40625 Z M 9.40625 -14.40625 L 16.28125 -14.40625 L 12.84375 -37.375 Z M 9.40625 -14.40625 "/></g></g></g><g fill="#383535" fill-opacity="1"><g transform="translate(131.920841, 165.617785)"><g><path d="M 17.703125 -13.171875 L 22.578125 -45.40625 L 32.5 -45.40625 L 32.5 0 L 25.75 0 L 25.75 -32.5625 L 20.828125 0 L 14.078125 0 L 8.765625 -32.109375 L 8.765625 0 L 2.53125 0 L 2.53125 -45.40625 L 12.453125 -45.40625 Z M 17.703125 -13.171875 "/></g></g></g><g fill="#383535" fill-opacity="1"><g transform="translate(167.013075, 165.617785)"><g/></g></g><g fill="#383535" fill-opacity="1"><g transform="translate(177.067216, 165.617785)"><g><path d="M 9.734375 0 L 2.59375 0 L 2.59375 -45.40625 L 9.734375 -45.40625 L 9.734375 -25.953125 L 17.84375 -25.953125 L 17.84375 -45.40625 L 25.109375 -45.40625 L 25.109375 0 L 17.84375 0 L 17.84375 -19.46875 L 9.734375 -19.46875 Z M 9.734375 0 "/></g></g></g><g fill="#383535" fill-opacity="1"><g transform="translate(204.764776, 165.617785)"><g><path d="M 9.140625 -10.4375 C 9.140625 -8.800781 9.472656 -7.644531 10.140625 -6.96875 C 10.816406 -6.300781 11.71875 -5.96875 12.84375 -5.96875 C 13.96875 -5.96875 14.863281 -6.300781 15.53125 -6.96875 C 16.207031 -7.644531 16.546875 -8.800781 16.546875 -10.4375 L 16.546875 -34.96875 C 16.546875 -36.613281 16.207031 -37.769531 15.53125 -38.4375 C 14.863281 -39.101562 13.96875 -39.4375 12.84375 -39.4375 C 11.71875 -39.4375 10.816406 -39.101562 10.140625 -38.4375 C 9.472656 -37.769531 9.140625 -36.613281 9.140625 -34.96875 Z M 2.015625 -34.515625 C 2.015625 -38.191406 2.941406 -41.015625 4.796875 -42.984375 C 6.660156 -44.953125 9.34375 -45.9375 12.84375 -45.9375 C 16.34375 -45.9375 19.019531 -44.953125 20.875 -42.984375 C 22.738281 -41.015625 23.671875 -38.191406 23.671875 -34.515625 L 23.671875 -10.90625 C 23.671875 -7.226562 22.738281 -4.40625 20.875 -2.4375 C 19.019531 -0.46875 16.34375 0.515625 12.84375 0.515625 C 9.34375 0.515625 6.660156 -0.46875 4.796875 -2.4375 C 2.941406 -4.40625 2.015625 -7.226562 2.015625 -10.90625 Z M 2.015625 -34.515625 "/></g></g></g><g fill="#383535" fill-opacity="1"><g transform="translate(230.451513, 165.617785)"><g><path d="M 9.40625 -45.40625 L 9.40625 -10.375 C 9.40625 -8.738281 9.738281 -7.59375 10.40625 -6.9375 C 11.082031 -6.289062 11.984375 -5.96875 13.109375 -5.96875 C 14.234375 -5.96875 15.128906 -6.289062 15.796875 -6.9375 C 16.460938 -7.59375 16.796875 -8.738281 16.796875 -10.375 L 16.796875 -45.40625 L 23.546875 -45.40625 L 23.546875 -10.828125 C 23.546875 -7.148438 22.648438 -4.328125 20.859375 -2.359375 C 19.066406 -0.398438 16.414062 0.578125 12.90625 0.578125 C 9.40625 0.578125 6.753906 -0.398438 4.953125 -2.359375 C 3.160156 -4.328125 2.265625 -7.148438 2.265625 -10.828125 L 2.265625 -45.40625 Z M 9.40625 -45.40625 "/></g></g></g><g fill="#383535" fill-opacity="1"><g transform="translate(256.267968, 165.617785)"><g><path d="M 1.6875 -34.515625 C 1.6875 -38.191406 2.5625 -41.015625 4.3125 -42.984375 C 6.0625 -44.953125 8.691406 -45.9375 12.203125 -45.9375 C 15.703125 -45.9375 18.328125 -44.953125 20.078125 -42.984375 C 21.828125 -41.015625 22.703125 -38.191406 22.703125 -34.515625 L 22.703125 -32.765625 L 15.953125 -32.765625 L 15.953125 -34.96875 C 15.953125 -36.613281 15.640625 -37.769531 15.015625 -38.4375 C 14.390625 -39.101562 13.515625 -39.4375 12.390625 -39.4375 C 11.265625 -39.4375 10.390625 -39.101562 9.765625 -38.4375 C 9.140625 -37.769531 8.828125 -36.613281 8.828125 -34.96875 C 8.828125 -33.40625 9.171875 -32.03125 9.859375 -30.84375 C 10.554688 -29.65625 11.421875 -28.53125 12.453125 -27.46875 C 13.492188 -26.414062 14.609375 -25.359375 15.796875 -24.296875 C 16.984375 -23.234375 18.09375 -22.070312 19.125 -20.8125 C 20.164062 -19.5625 21.03125 -18.132812 21.71875 -16.53125 C 22.414062 -14.9375 22.765625 -13.0625 22.765625 -10.90625 C 22.765625 -7.226562 21.867188 -4.40625 20.078125 -2.4375 C 18.285156 -0.46875 15.632812 0.515625 12.125 0.515625 C 8.625 0.515625 5.972656 -0.46875 4.171875 -2.4375 C 2.378906 -4.40625 1.484375 -7.226562 1.484375 -10.90625 L 1.484375 -14.015625 L 8.234375 -14.015625 L 8.234375 -10.4375 C 8.234375 -8.800781 8.566406 -7.65625 9.234375 -7 C 9.910156 -6.351562 10.8125 -6.03125 11.9375 -6.03125 C 13.0625 -6.03125 13.957031 -6.351562 14.625 -7 C 15.300781 -7.65625 15.640625 -8.800781 15.640625 -10.4375 C 15.640625 -12 15.289062 -13.375 14.59375 -14.5625 C 13.90625 -15.75 13.039062 -16.875 12 -17.9375 C 10.957031 -19 9.84375 -20.054688 8.65625 -21.109375 C 7.46875 -22.171875 6.351562 -23.328125 5.3125 -24.578125 C 4.28125 -25.835938 3.414062 -27.265625 2.71875 -28.859375 C 2.03125 -30.460938 1.6875 -32.347656 1.6875 -34.515625 Z M 1.6875 -34.515625 "/></g></g></g><g fill="#383535" fill-opacity="1"><g transform="translate(280.52767, 165.617785)"><g><path d="M 2.59375 -45.40625 L 9.734375 -45.40625 L 9.734375 0 L 2.59375 0 Z M 2.59375 -45.40625 "/></g></g></g><g fill="#383535" fill-opacity="1"><g transform="translate(292.852125, 165.617785)"><g><path d="M 8.953125 -32.890625 L 8.953125 0 L 2.53125 0 L 2.53125 -45.40625 L 11.484375 -45.40625 L 18.8125 -18.234375 L 18.8125 -45.40625 L 25.171875 -45.40625 L 25.171875 0 L 17.84375 0 Z M 8.953125 -32.890625 "/></g></g></g><g fill="#383535" fill-opacity="1"><g transform="translate(320.549685, 165.617785)"><g><path d="M 13.296875 -25.296875 L 23.296875 -25.296875 L 23.296875 -10.90625 C 23.296875 -7.226562 22.394531 -4.40625 20.59375 -2.4375 C 18.800781 -0.46875 16.15625 0.515625 12.65625 0.515625 C 9.144531 0.515625 6.492188 -0.46875 4.703125 -2.4375 C 2.910156 -4.40625 2.015625 -7.226562 2.015625 -10.90625 L 2.015625 -34.515625 C 2.015625 -38.191406 2.910156 -41.015625 4.703125 -42.984375 C 6.492188 -44.953125 9.144531 -45.9375 12.65625 -45.9375 C 16.15625 -45.9375 18.800781 -44.953125 20.59375 -42.984375 C 22.394531 -41.015625 23.296875 -38.191406 23.296875 -34.515625 L 23.296875 -30.109375 L 16.546875 -30.109375 L 16.546875 -34.96875 C 16.546875 -36.613281 16.207031 -37.769531 15.53125 -38.4375 C 14.863281 -39.101562 13.96875 -39.4375 12.84375 -39.4375 C 11.71875 -39.4375 10.816406 -39.101562 10.140625 -38.4375 C 9.472656 -37.769531 9.140625 -36.613281 9.140625 -34.96875 L 9.140625 -10.4375 C 9.140625 -8.800781 9.472656 -7.65625 10.140625 -7 C 10.816406 -6.351562 11.71875 -6.03125 12.84375 -6.03125 C 13.96875 -6.03125 14.863281 -6.351562 15.53125 -7 C 16.207031 -7.65625 16.546875 -8.800781 16.546875 -10.4375 L 16.546875 -18.8125 L 13.296875 -18.8125 Z M 13.296875 -25.296875 "/></g></g></g><g fill="#383535" fill-opacity="1"><g transform="translate(56.856726, 202.081879)"><g><path d="M 17.390625 0 L 14.765625 0 L 11.953125 -10.296875 C 11.765625 -10.941406 11.5 -12.097656 11.15625 -13.765625 C 10.945312 -12.867188 10.773438 -12.117188 10.640625 -11.515625 C 10.503906 -10.921875 9.457031 -7.082031 7.5 0 L 4.875 0 L 0.109375 -16.203125 L 2.390625 -16.203125 L 5.296875 -5.90625 C 5.648438 -4.625 5.972656 -3.300781 6.265625 -1.9375 C 6.441406 -2.78125 6.648438 -3.695312 6.890625 -4.6875 C 7.140625 -5.6875 8.207031 -9.523438 10.09375 -16.203125 L 12.203125 -16.203125 L 15.015625 -6.125 C 15.441406 -4.46875 15.78125 -3.070312 16.03125 -1.9375 L 16.125 -2.328125 C 16.332031 -3.210938 16.5 -3.929688 16.625 -4.484375 C 16.757812 -5.046875 17.84375 -8.953125 19.875 -16.203125 L 22.15625 -16.203125 Z M 17.390625 0 "/></g></g></g><g fill="#383535" fill-opacity="1"><g transform="translate(77.841957, 202.081879)"><g><path d="M 3.640625 -10.3125 C 4.085938 -11.132812 4.625 -11.734375 5.25 -12.109375 C 5.875 -12.484375 6.664062 -12.671875 7.625 -12.671875 C 8.976562 -12.671875 9.972656 -12.335938 10.609375 -11.671875 C 11.253906 -11.003906 11.578125 -9.878906 11.578125 -8.296875 L 11.578125 0 L 9.484375 0 L 9.484375 -7.890625 C 9.484375 -8.765625 9.40625 -9.414062 9.25 -9.84375 C 9.09375 -10.269531 8.828125 -10.582031 8.453125 -10.78125 C 8.085938 -10.976562 7.578125 -11.078125 6.921875 -11.078125 C 5.953125 -11.078125 5.171875 -10.738281 4.578125 -10.0625 C 3.992188 -9.382812 3.703125 -8.476562 3.703125 -7.34375 L 3.703125 0 L 1.640625 0 L 1.640625 -17.078125 L 3.703125 -17.078125 L 3.703125 -12.625 C 3.703125 -12.164062 3.6875 -11.6875 3.65625 -11.1875 C 3.632812 -10.6875 3.617188 -10.394531 3.609375 -10.3125 Z M 3.640625 -10.3125 "/></g></g></g><g fill="#383535" fill-opacity="1"><g transform="translate(89.69445, 202.081879)"><g><path d="M 3.171875 -5.78125 C 3.171875 -4.351562 3.46875 -3.253906 4.0625 -2.484375 C 4.65625 -1.710938 5.519531 -1.328125 6.65625 -1.328125 C 7.550781 -1.328125 8.269531 -1.503906 8.8125 -1.859375 C 9.351562 -2.222656 9.71875 -2.679688 9.90625 -3.234375 L 11.71875 -2.71875 C 10.976562 -0.75 9.289062 0.234375 6.65625 0.234375 C 4.8125 0.234375 3.40625 -0.3125 2.4375 -1.40625 C 1.476562 -2.507812 1 -4.144531 1 -6.3125 C 1 -8.363281 1.476562 -9.9375 2.4375 -11.03125 C 3.40625 -12.125 4.78125 -12.671875 6.5625 -12.671875 C 10.226562 -12.671875 12.0625 -10.46875 12.0625 -6.0625 L 12.0625 -5.78125 Z M 9.921875 -7.375 C 9.804688 -8.6875 9.472656 -9.644531 8.921875 -10.25 C 8.367188 -10.851562 7.570312 -11.15625 6.53125 -11.15625 C 5.53125 -11.15625 4.734375 -10.816406 4.140625 -10.140625 C 3.554688 -9.472656 3.242188 -8.550781 3.203125 -7.375 Z M 9.921875 -7.375 "/></g></g></g><g fill="#383535" fill-opacity="1"><g transform="translate(101.546943, 202.081879)"><g><path d="M 1.640625 0 L 1.640625 -9.546875 C 1.640625 -10.421875 1.613281 -11.390625 1.5625 -12.453125 L 3.515625 -12.453125 C 3.578125 -11.035156 3.609375 -10.1875 3.609375 -9.90625 L 3.65625 -9.90625 C 3.988281 -10.96875 4.367188 -11.691406 4.796875 -12.078125 C 5.222656 -12.472656 5.828125 -12.671875 6.609375 -12.671875 C 6.890625 -12.671875 7.171875 -12.632812 7.453125 -12.5625 L 7.453125 -10.671875 C 7.179688 -10.742188 6.8125 -10.78125 6.34375 -10.78125 C 5.488281 -10.78125 4.832031 -10.410156 4.375 -9.671875 C 3.925781 -8.929688 3.703125 -7.867188 3.703125 -6.484375 L 3.703125 0 Z M 1.640625 0 "/></g></g></g><g fill="#383535" fill-opacity="1"><g transform="translate(108.142935, 202.081879)"><g><path d="M 3.171875 -5.78125 C 3.171875 -4.351562 3.46875 -3.253906 4.0625 -2.484375 C 4.65625 -1.710938 5.519531 -1.328125 6.65625 -1.328125 C 7.550781 -1.328125 8.269531 -1.503906 8.8125 -1.859375 C 9.351562 -2.222656 9.71875 -2.679688 9.90625 -3.234375 L 11.71875 -2.71875 C 10.976562 -0.75 9.289062 0.234375 6.65625 0.234375 C 4.8125 0.234375 3.40625 -0.3125 2.4375 -1.40625 C 1.476562 -2.507812 1 -4.144531 1 -6.3125 C 1 -8.363281 1.476562 -9.9375 2.4375 -11.03125 C 3.40625 -12.125 4.78125 -12.671875 6.5625 -12.671875 C 10.226562 -12.671875 12.0625 -10.46875 12.0625 -6.0625 L 12.0625 -5.78125 Z M 9.921875 -7.375 C 9.804688 -8.6875 9.472656 -9.644531 8.921875 -10.25 C 8.367188 -10.851562 7.570312 -11.15625 6.53125 -11.15625 C 5.53125 -11.15625 4.734375 -10.816406 4.140625 -10.140625 C 3.554688 -9.472656 3.242188 -8.550781 3.203125 -7.375 Z M 9.921875 -7.375 "/></g></g></g><g fill="#383535" fill-opacity="1"><g transform="translate(119.995425, 202.081879)"><g/></g></g><g fill="#383535" fill-opacity="1"><g transform="translate(125.291666, 202.081879)"><g><path d="M 15.890625 -8.265625 C 15.890625 -6.597656 15.5625 -5.132812 14.90625 -3.875 C 14.257812 -2.625 13.335938 -1.664062 12.140625 -1 C 10.941406 -0.332031 9.5625 0 8 0 L 1.9375 0 L 1.9375 -16.203125 L 7.296875 -16.203125 C 10.035156 -16.203125 12.148438 -15.515625 13.640625 -14.140625 C 15.140625 -12.765625 15.890625 -10.804688 15.890625 -8.265625 Z M 13.671875 -8.265625 C 13.671875 -10.273438 13.117188 -11.804688 12.015625 -12.859375 C 10.921875 -13.921875 9.332031 -14.453125 7.25 -14.453125 L 4.125 -14.453125 L 4.125 -1.765625 L 7.75 -1.765625 C 8.9375 -1.765625 9.976562 -2.023438 10.875 -2.546875 C 11.78125 -3.066406 12.472656 -3.816406 12.953125 -4.796875 C 13.429688 -5.773438 13.671875 -6.929688 13.671875 -8.265625 Z M 13.671875 -8.265625 "/></g></g></g><g fill="#383535" fill-opacity="1"><g transform="translate(141.054901, 202.081879)"><g><path d="M 1.640625 0 L 1.640625 -9.546875 C 1.640625 -10.421875 1.613281 -11.390625 1.5625 -12.453125 L 3.515625 -12.453125 C 3.578125 -11.035156 3.609375 -10.1875 3.609375 -9.90625 L 3.65625 -9.90625 C 3.988281 -10.96875 4.367188 -11.691406 4.796875 -12.078125 C 5.222656 -12.472656 5.828125 -12.671875 6.609375 -12.671875 C 6.890625 -12.671875 7.171875 -12.632812 7.453125 -12.5625 L 7.453125 -10.671875 C 7.179688 -10.742188 6.8125 -10.78125 6.34375 -10.78125 C 5.488281 -10.78125 4.832031 -10.410156 4.375 -9.671875 C 3.925781 -8.929688 3.703125 -7.867188 3.703125 -6.484375 L 3.703125 0 Z M 1.640625 0 "/></g></g></g><g fill="#383535" fill-opacity="1"><g transform="translate(147.65089, 202.081879)"><g><path d="M 3.171875 -5.78125 C 3.171875 -4.351562 3.46875 -3.253906 4.0625 -2.484375 C 4.65625 -1.710938 5.519531 -1.328125 6.65625 -1.328125 C 7.550781 -1.328125 8.269531 -1.503906 8.8125 -1.859375 C 9.351562 -2.222656 9.71875 -2.679688 9.90625 -3.234375 L 11.71875 -2.71875 C 10.976562 -0.75 9.289062 0.234375 6.65625 0.234375 C 4.8125 0.234375 3.40625 -0.3125 2.4375 -1.40625 C 1.476562 -2.507812 1 -4.144531 1 -6.3125 C 1 -8.363281 1.476562 -9.9375 2.4375 -11.03125 C 3.40625 -12.125 4.78125 -12.671875 6.5625 -12.671875 C 10.226562 -12.671875 12.0625 -10.46875 12.0625 -6.0625 L 12.0625 -5.78125 Z M 9.921875 -7.375 C 9.804688 -8.6875 9.472656 -9.644531 8.921875 -10.25 C 8.367188 -10.851562 7.570312 -11.15625 6.53125 -11.15625 C 5.53125 -11.15625 4.734375 -10.816406 4.140625 -10.140625 C 3.554688 -9.472656 3.242188 -8.550781 3.203125 -7.375 Z M 9.921875 -7.375 "/></g></g></g><g fill="#383535" fill-opacity="1"><g transform="translate(159.50338, 202.081879)"><g><path d="M 4.765625 0.234375 C 3.515625 0.234375 2.570312 -0.09375 1.9375 -0.75 C 1.3125 -1.414062 1 -2.320312 1 -3.46875 C 1 -4.757812 1.421875 -5.75 2.265625 -6.4375 C 3.117188 -7.132812 4.488281 -7.503906 6.375 -7.546875 L 9.171875 -7.59375 L 9.171875 -8.265625 C 9.171875 -9.285156 8.953125 -10.015625 8.515625 -10.453125 C 8.085938 -10.890625 7.414062 -11.109375 6.5 -11.109375 C 5.570312 -11.109375 4.894531 -10.945312 4.46875 -10.625 C 4.050781 -10.3125 3.800781 -9.8125 3.71875 -9.125 L 1.546875 -9.3125 C 1.898438 -11.550781 3.566406 -12.671875 6.546875 -12.671875 C 8.109375 -12.671875 9.285156 -12.3125 10.078125 -11.59375 C 10.867188 -10.882812 11.265625 -9.847656 11.265625 -8.484375 L 11.265625 -3.125 C 11.265625 -2.507812 11.34375 -2.046875 11.5 -1.734375 C 11.664062 -1.429688 11.972656 -1.28125 12.421875 -1.28125 C 12.617188 -1.28125 12.847656 -1.304688 13.109375 -1.359375 L 13.109375 -0.0625 C 12.585938 0.0507812 12.050781 0.109375 11.5 0.109375 C 10.738281 0.109375 10.179688 -0.0859375 9.828125 -0.484375 C 9.484375 -0.890625 9.285156 -1.519531 9.234375 -2.375 L 9.171875 -2.375 C 8.640625 -1.425781 8.019531 -0.753906 7.3125 -0.359375 C 6.613281 0.0351562 5.765625 0.234375 4.765625 0.234375 Z M 5.234375 -1.328125 C 5.992188 -1.328125 6.664062 -1.5 7.25 -1.84375 C 7.84375 -2.1875 8.3125 -2.660156 8.65625 -3.265625 C 9 -3.867188 9.171875 -4.488281 9.171875 -5.125 L 9.171875 -6.140625 L 6.90625 -6.09375 C 5.925781 -6.082031 5.1875 -5.984375 4.6875 -5.796875 C 4.1875 -5.609375 3.800781 -5.320312 3.53125 -4.9375 C 3.257812 -4.5625 3.125 -4.0625 3.125 -3.4375 C 3.125 -2.757812 3.304688 -2.238281 3.671875 -1.875 C 4.035156 -1.507812 4.554688 -1.328125 5.234375 -1.328125 Z M 5.234375 -1.328125 "/></g></g></g><g fill="#383535" fill-opacity="1"><g transform="translate(171.35587, 202.081879)"><g><path d="M 8.84375 0 L 8.84375 -7.890625 C 8.84375 -9.097656 8.675781 -9.929688 8.34375 -10.390625 C 8.007812 -10.847656 7.414062 -11.078125 6.5625 -11.078125 C 5.675781 -11.078125 4.972656 -10.738281 4.453125 -10.0625 C 3.941406 -9.382812 3.6875 -8.4375 3.6875 -7.21875 L 3.6875 0 L 1.640625 0 L 1.640625 -9.796875 C 1.640625 -11.242188 1.613281 -12.128906 1.5625 -12.453125 L 3.515625 -12.453125 C 3.523438 -12.410156 3.535156 -12.304688 3.546875 -12.140625 C 3.554688 -11.972656 3.566406 -11.78125 3.578125 -11.5625 C 3.585938 -11.34375 3.597656 -10.925781 3.609375 -10.3125 L 3.640625 -10.3125 C 4.085938 -11.195312 4.597656 -11.8125 5.171875 -12.15625 C 5.753906 -12.5 6.457031 -12.671875 7.28125 -12.671875 C 8.226562 -12.671875 8.972656 -12.484375 9.515625 -12.109375 C 10.066406 -11.734375 10.453125 -11.132812 10.671875 -10.3125 L 10.703125 -10.3125 C 11.128906 -11.15625 11.644531 -11.757812 12.25 -12.125 C 12.863281 -12.488281 13.601562 -12.671875 14.46875 -12.671875 C 15.726562 -12.671875 16.644531 -12.328125 17.21875 -11.640625 C 17.789062 -10.960938 18.078125 -9.847656 18.078125 -8.296875 L 18.078125 0 L 16.03125 0 L 16.03125 -7.890625 C 16.03125 -9.097656 15.863281 -9.929688 15.53125 -10.390625 C 15.195312 -10.847656 14.601562 -11.078125 13.75 -11.078125 C 12.84375 -11.078125 12.140625 -10.738281 11.640625 -10.0625 C 11.140625 -9.394531 10.890625 -8.445312 10.890625 -7.21875 L 10.890625 0 Z M 8.84375 0 "/></g></g></g><g fill="#383535" fill-opacity="1"><g transform="translate(189.730101, 202.081879)"><g><path d="M 10.9375 -3.4375 C 10.9375 -2.269531 10.488281 -1.363281 9.59375 -0.71875 C 8.707031 -0.0820312 7.46875 0.234375 5.875 0.234375 C 4.332031 0.234375 3.140625 -0.0195312 2.296875 -0.53125 C 1.453125 -1.039062 0.90625 -1.835938 0.65625 -2.921875 L 2.484375 -3.28125 C 2.660156 -2.613281 3.023438 -2.125 3.578125 -1.8125 C 4.128906 -1.5 4.894531 -1.34375 5.875 -1.34375 C 6.925781 -1.34375 7.695312 -1.503906 8.1875 -1.828125 C 8.675781 -2.148438 8.921875 -2.632812 8.921875 -3.28125 C 8.921875 -3.769531 8.75 -4.164062 8.40625 -4.46875 C 8.070312 -4.78125 7.53125 -5.035156 6.78125 -5.234375 L 5.296875 -5.625 C 4.109375 -5.9375 3.257812 -6.238281 2.75 -6.53125 C 2.25 -6.820312 1.859375 -7.175781 1.578125 -7.59375 C 1.296875 -8.019531 1.15625 -8.539062 1.15625 -9.15625 C 1.15625 -10.289062 1.554688 -11.15625 2.359375 -11.75 C 3.171875 -12.34375 4.351562 -12.640625 5.90625 -12.640625 C 7.28125 -12.640625 8.367188 -12.394531 9.171875 -11.90625 C 9.984375 -11.425781 10.5 -10.65625 10.71875 -9.59375 L 8.84375 -9.359375 C 8.726562 -9.910156 8.421875 -10.332031 7.921875 -10.625 C 7.421875 -10.925781 6.75 -11.078125 5.90625 -11.078125 C 4.96875 -11.078125 4.273438 -10.9375 3.828125 -10.65625 C 3.378906 -10.375 3.15625 -9.941406 3.15625 -9.359375 C 3.15625 -9.015625 3.25 -8.722656 3.4375 -8.484375 C 3.625 -8.253906 3.894531 -8.054688 4.25 -7.890625 C 4.613281 -7.734375 5.375 -7.515625 6.53125 -7.234375 C 7.632812 -6.960938 8.425781 -6.707031 8.90625 -6.46875 C 9.382812 -6.238281 9.765625 -5.976562 10.046875 -5.6875 C 10.328125 -5.40625 10.546875 -5.078125 10.703125 -4.703125 C 10.859375 -4.335938 10.9375 -3.914062 10.9375 -3.4375 Z M 10.9375 -3.4375 "/></g></g></g><g fill="#383535" fill-opacity="1"><g transform="translate(200.259839, 202.081879)"><g/></g></g><g fill="#383535" fill-opacity="1"><g transform="translate(205.556081, 202.081879)"><g><path d="M 4.125 -14.421875 L 4.125 -8.390625 L 13.171875 -8.390625 L 13.171875 -6.5625 L 4.125 -6.5625 L 4.125 0 L 1.9375 0 L 1.9375 -16.203125 L 13.453125 -16.203125 L 13.453125 -14.421875 Z M 4.125 -14.421875 "/></g></g></g><g fill="#383535" fill-opacity="1"><g transform="translate(218.696816, 202.081879)"><g><path d="M 1.578125 -15.09375 L 1.578125 -17.078125 L 3.640625 -17.078125 L 3.640625 -15.09375 Z M 1.578125 0 L 1.578125 -12.453125 L 3.640625 -12.453125 L 3.640625 0 Z M 1.578125 0 "/></g></g></g><g fill="#383535" fill-opacity="1"><g transform="translate(222.681808, 202.081879)"><g><path d="M 9.484375 0 L 9.484375 -7.890625 C 9.484375 -8.710938 9.40625 -9.347656 9.25 -9.796875 C 9.09375 -10.253906 8.835938 -10.582031 8.484375 -10.78125 C 8.128906 -10.976562 7.609375 -11.078125 6.921875 -11.078125 C 5.929688 -11.078125 5.144531 -10.734375 4.5625 -10.046875 C 3.988281 -9.367188 3.703125 -8.425781 3.703125 -7.21875 L 3.703125 0 L 1.640625 0 L 1.640625 -9.796875 C 1.640625 -11.242188 1.613281 -12.128906 1.5625 -12.453125 L 3.515625 -12.453125 C 3.523438 -12.410156 3.535156 -12.304688 3.546875 -12.140625 C 3.554688 -11.972656 3.566406 -11.78125 3.578125 -11.5625 C 3.585938 -11.34375 3.597656 -10.925781 3.609375 -10.3125 L 3.640625 -10.3125 C 4.117188 -11.175781 4.671875 -11.785156 5.296875 -12.140625 C 5.921875 -12.492188 6.695312 -12.671875 7.625 -12.671875 C 8.988281 -12.671875 9.988281 -12.332031 10.625 -11.65625 C 11.257812 -10.976562 11.578125 -9.859375 11.578125 -8.296875 L 11.578125 0 Z M 9.484375 0 "/></g></g></g><g fill="#383535" fill-opacity="1"><g transform="translate(234.534298, 202.081879)"><g><path d="M 9.453125 -2 C 9.066406 -1.207031 8.554688 -0.632812 7.921875 -0.28125 C 7.285156 0.0625 6.5 0.234375 5.5625 0.234375 C 3.988281 0.234375 2.832031 -0.296875 2.09375 -1.359375 C 1.351562 -2.421875 0.984375 -4.023438 0.984375 -6.171875 C 0.984375 -10.503906 2.507812 -12.671875 5.5625 -12.671875 C 6.507812 -12.671875 7.296875 -12.5 7.921875 -12.15625 C 8.554688 -11.8125 9.066406 -11.265625 9.453125 -10.515625 L 9.46875 -10.515625 L 9.453125 -11.90625 L 9.453125 -17.078125 L 11.515625 -17.078125 L 11.515625 -2.5625 C 11.515625 -1.269531 11.535156 -0.414062 11.578125 0 L 9.609375 0 C 9.585938 -0.125 9.5625 -0.40625 9.53125 -0.84375 C 9.5 -1.289062 9.484375 -1.675781 9.484375 -2 Z M 3.15625 -6.234375 C 3.15625 -4.492188 3.382812 -3.25 3.84375 -2.5 C 4.3125 -1.75 5.0625 -1.375 6.09375 -1.375 C 7.269531 -1.375 8.125 -1.78125 8.65625 -2.59375 C 9.1875 -3.40625 9.453125 -4.664062 9.453125 -6.375 C 9.453125 -8.019531 9.1875 -9.226562 8.65625 -10 C 8.125 -10.769531 7.28125 -11.15625 6.125 -11.15625 C 5.082031 -11.15625 4.328125 -10.769531 3.859375 -10 C 3.390625 -9.226562 3.15625 -7.972656 3.15625 -6.234375 Z M 3.15625 -6.234375 "/></g></g></g><g fill="#383535" fill-opacity="1"><g transform="translate(246.386799, 202.081879)"><g/></g></g><g fill="#383535" fill-opacity="1"><g transform="translate(251.683041, 202.081879)"><g><path d="M 4.765625 0.234375 C 3.515625 0.234375 2.570312 -0.09375 1.9375 -0.75 C 1.3125 -1.414062 1 -2.320312 1 -3.46875 C 1 -4.757812 1.421875 -5.75 2.265625 -6.4375 C 3.117188 -7.132812 4.488281 -7.503906 6.375 -7.546875 L 9.171875 -7.59375 L 9.171875 -8.265625 C 9.171875 -9.285156 8.953125 -10.015625 8.515625 -10.453125 C 8.085938 -10.890625 7.414062 -11.109375 6.5 -11.109375 C 5.570312 -11.109375 4.894531 -10.945312 4.46875 -10.625 C 4.050781 -10.3125 3.800781 -9.8125 3.71875 -9.125 L 1.546875 -9.3125 C 1.898438 -11.550781 3.566406 -12.671875 6.546875 -12.671875 C 8.109375 -12.671875 9.285156 -12.3125 10.078125 -11.59375 C 10.867188 -10.882812 11.265625 -9.847656 11.265625 -8.484375 L 11.265625 -3.125 C 11.265625 -2.507812 11.34375 -2.046875 11.5 -1.734375 C 11.664062 -1.429688 11.972656 -1.28125 12.421875 -1.28125 C 12.617188 -1.28125 12.847656 -1.304688 13.109375 -1.359375 L 13.109375 -0.0625 C 12.585938 0.0507812 12.050781 0.109375 11.5 0.109375 C 10.738281 0.109375 10.179688 -0.0859375 9.828125 -0.484375 C 9.484375 -0.890625 9.285156 -1.519531 9.234375 -2.375 L 9.171875 -2.375 C 8.640625 -1.425781 8.019531 -0.753906 7.3125 -0.359375 C 6.613281 0.0351562 5.765625 0.234375 4.765625 0.234375 Z M 5.234375 -1.328125 C 5.992188 -1.328125 6.664062 -1.5 7.25 -1.84375 C 7.84375 -2.1875 8.3125 -2.660156 8.65625 -3.265625 C 9 -3.867188 9.171875 -4.488281 9.171875 -5.125 L 9.171875 -6.140625 L 6.90625 -6.09375 C 5.925781 -6.082031 5.1875 -5.984375 4.6875 -5.796875 C 4.1875 -5.609375 3.800781 -5.320312 3.53125 -4.9375 C 3.257812 -4.5625 3.125 -4.0625 3.125 -3.4375 C 3.125 -2.757812 3.304688 -2.238281 3.671875 -1.875 C 4.035156 -1.507812 4.554688 -1.328125 5.234375 -1.328125 Z M 5.234375 -1.328125 "/></g></g></g><g fill="#383535" fill-opacity="1"><g transform="translate(263.535531, 202.081879)"><g/></g></g><g fill="#383535" fill-opacity="1"><g transform="translate(268.831773, 202.081879)"><g><path d="M 12.890625 0 L 12.890625 -7.515625 L 4.125 -7.515625 L 4.125 0 L 1.9375 0 L 1.9375 -16.203125 L 4.125 -16.203125 L 4.125 -9.359375 L 12.890625 -9.359375 L 12.890625 -16.203125 L 15.09375 -16.203125 L 15.09375 0 Z M 12.890625 0 "/></g></g></g><g fill="#383535" fill-opacity="1"><g transform="translate(284.595007, 202.081879)"><g><path d="M 12.109375 -6.234375 C 12.109375 -4.054688 11.628906 -2.429688 10.671875 -1.359375 C 9.710938 -0.296875 8.320312 0.234375 6.5 0.234375 C 4.6875 0.234375 3.3125 -0.316406 2.375 -1.421875 C 1.445312 -2.535156 0.984375 -4.140625 0.984375 -6.234375 C 0.984375 -10.523438 2.84375 -12.671875 6.5625 -12.671875 C 8.46875 -12.671875 9.867188 -12.144531 10.765625 -11.09375 C 11.660156 -10.050781 12.109375 -8.429688 12.109375 -6.234375 Z M 9.9375 -6.234375 C 9.9375 -7.953125 9.679688 -9.203125 9.171875 -9.984375 C 8.660156 -10.765625 7.804688 -11.15625 6.609375 -11.15625 C 5.390625 -11.15625 4.507812 -10.753906 3.96875 -9.953125 C 3.425781 -9.160156 3.15625 -7.921875 3.15625 -6.234375 C 3.15625 -4.597656 3.421875 -3.363281 3.953125 -2.53125 C 4.492188 -1.707031 5.335938 -1.296875 6.484375 -1.296875 C 7.722656 -1.296875 8.609375 -1.691406 9.140625 -2.484375 C 9.671875 -3.285156 9.9375 -4.535156 9.9375 -6.234375 Z M 9.9375 -6.234375 "/></g></g></g><g fill="#383535" fill-opacity="1"><g transform="translate(296.447497, 202.081879)"><g><path d="M 8.84375 0 L 8.84375 -7.890625 C 8.84375 -9.097656 8.675781 -9.929688 8.34375 -10.390625 C 8.007812 -10.847656 7.414062 -11.078125 6.5625 -11.078125 C 5.675781 -11.078125 4.972656 -10.738281 4.453125 -10.0625 C 3.941406 -9.382812 3.6875 -8.4375 3.6875 -7.21875 L 3.6875 0 L 1.640625 0 L 1.640625 -9.796875 C 1.640625 -11.242188 1.613281 -12.128906 1.5625 -12.453125 L 3.515625 -12.453125 C 3.523438 -12.410156 3.535156 -12.304688 3.546875 -12.140625 C 3.554688 -11.972656 3.566406 -11.78125 3.578125 -11.5625 C 3.585938 -11.34375 3.597656 -10.925781 3.609375 -10.3125 L 3.640625 -10.3125 C 4.085938 -11.195312 4.597656 -11.8125 5.171875 -12.15625 C 5.753906 -12.5 6.457031 -12.671875 7.28125 -12.671875 C 8.226562 -12.671875 8.972656 -12.484375 9.515625 -12.109375 C 10.066406 -11.734375 10.453125 -11.132812 10.671875 -10.3125 L 10.703125 -10.3125 C 11.128906 -11.15625 11.644531 -11.757812 12.25 -12.125 C 12.863281 -12.488281 13.601562 -12.671875 14.46875 -12.671875 C 15.726562 -12.671875 16.644531 -12.328125 17.21875 -11.640625 C 17.789062 -10.960938 18.078125 -9.847656 18.078125 -8.296875 L 18.078125 0 L 16.03125 0 L 16.03125 -7.890625 C 16.03125 -9.097656 15.863281 -9.929688 15.53125 -10.390625 C 15.195312 -10.847656 14.601562 -11.078125 13.75 -11.078125 C 12.84375 -11.078125 12.140625 -10.738281 11.640625 -10.0625 C 11.140625 -9.394531 10.890625 -8.445312 10.890625 -7.21875 L 10.890625 0 Z M 8.84375 0 "/></g></g></g><g fill="#383535" fill-opacity="1"><g transform="translate(314.821729, 202.081879)"><g><path d="M 3.171875 -5.78125 C 3.171875 -4.351562 3.46875 -3.253906 4.0625 -2.484375 C 4.65625 -1.710938 5.519531 -1.328125 6.65625 -1.328125 C 7.550781 -1.328125 8.269531 -1.503906 8.8125 -1.859375 C 9.351562 -2.222656 9.71875 -2.679688 9.90625 -3.234375 L 11.71875 -2.71875 C 10.976562 -0.75 9.289062 0.234375 6.65625 0.234375 C 4.8125 0.234375 3.40625 -0.3125 2.4375 -1.40625 C 1.476562 -2.507812 1 -4.144531 1 -6.3125 C 1 -8.363281 1.476562 -9.9375 2.4375 -11.03125 C 3.40625 -12.125 4.78125 -12.671875 6.5625 -12.671875 C 10.226562 -12.671875 12.0625 -10.46875 12.0625 -6.0625 L 12.0625 -5.78125 Z M 9.921875 -7.375 C 9.804688 -8.6875 9.472656 -9.644531 8.921875 -10.25 C 8.367188 -10.851562 7.570312 -11.15625 6.53125 -11.15625 C 5.53125 -11.15625 4.734375 -10.816406 4.140625 -10.140625 C 3.554688 -9.472656 3.242188 -8.550781 3.203125 -7.375 Z M 9.921875 -7.375 "/></g></g></g></svg>